<?xml version="1.0" encoding="UTF-8"?>
<svg xmlns="http://www.w3.org/2000/svg" xmlns:xlink="http://www.w3.org/1999/xlink" width="30pt" height="34pt" viewBox="0 0 30 34" version="1.1">
<g id="surface1">
<path style=" stroke:none;fill-rule:nonzero;fill:rgb(0%,0%,0%);fill-opacity:1;" d="M 12.757812 4.410156 L 14.242188 2.945312 C 14.871094 2.328125 15.890625 2.328125 16.511719 2.945312 L 29.53125 15.746094 C 30.160156 16.363281 30.160156 17.367188 29.53125 17.976562 L 16.511719 30.785156 C 15.882812 31.40625 14.867188 31.40625 14.242188 30.785156 L 12.757812 29.324219 C 12.121094 28.695312 12.132812 27.675781 12.785156 27.0625 L 20.851562 19.5 L 1.605469 19.5 C 0.714844 19.5 0 18.792969 0 17.917969 L 0 15.8125 C 0 14.9375 0.714844 14.230469 1.605469 14.230469 L 20.851562 14.230469 L 12.785156 6.667969 C 12.125 6.054688 12.113281 5.03125 12.757812 4.410156 Z M 12.757812 4.410156 "/>
</g>
</svg>
